<svg xmlns="http://www.w3.org/2000/svg" width="128" height="35" viewBox="0 0 128 35">
    <g fill="none" fill-rule="evenodd">
        <g>
            <g>
                <g fill="#ED589D">
                    <path d="M73.508 10.934c-.034-.16-.064-.404-.14-.633-.15-.447-.34-.563-.803-.522-.406.036-.728.197-.876.608-.145.404-.046.752.268 1.028.182.16.377.318.595.416.507.229.808.061.92-.48.023-.108.02-.221.036-.417m15.334 2.242c.14-.019.28-.017.408-.055 1.408-.415 2.468-1.258 3.074-2.607.17-.375.384-.836.012-1.199-.365-.358-.858-.276-1.264-.071-.655.333-1.313.688-1.897 1.128-.476.361-.885.832-1.252 1.31-.48.62-.232 1.222.528 1.428.129.034.264.044.391.066M66.209 18.67c0 .224-.02.45.005.673.075.676.466.967 1.115.777.38-.113.767-.277 1.09-.502 1.39-.971 2.597-2.131 3.535-3.558.073-.111.143-.228.199-.35.305-.643.14-1.108-.475-1.463-.424-.245-.833-.52-1.228-.812-.268-.2-.492-.457-.745-.679-.374-.325-.63-.328-1.01-.015-.118.101-.223.22-.327.337-1.417 1.595-2.043 3.497-2.159 5.592M80.671 7.714c-.627-.023-1.032-.265-1.112-.885-.078-.614.165-1.122.772-1.44.356-.186.746-.32 1.135-.415.658-.162 1.131-.54 1.436-1.128.276-.537.497-1.103.778-1.638.15-.29.33-.597.574-.798.41-.34 1.023-.289 1.437.037.426.333.578.8.411 1.322-.12.379-.262.75-.428 1.222.278.035.47.101.645.074.756-.112 1.528.776.984 1.68-.163.272-.45.5-.73.661-.327.19-.707.285-1.062.422-.919.35-1.742.83-2.304 1.675-.171.258-.256.49-.125.808.204.49.03.937-.327 1.29-.38.38-.803.718-1.2 1.082-.18.166-.386.324-.503.53-.78 1.364-1.59 2.716-2.105 4.212-.183.528-.326 1.072-.45 1.62-.093.408-.054.817.312 1.102.396.308.82.211 1.201-.008.286-.165.571-.378.77-.634 1.232-1.604 2.41-3.244 3.233-5.108.808-1.833 1.907-3.46 3.425-4.783 1.21-1.054 2.576-1.777 4.2-1.977 2.094-.26 3.706 1.396 3.348 3.467-.12.695-.35 1.347-.717 1.948-.853 1.398-2.025 2.449-3.496 3.168-1.012.494-2.062.575-3.147.307-.065-.017-.13-.039-.194-.056-1.125-.301-1.623-.014-1.93 1.11-.15.553-.186 1.108-.005 1.66.184.553.544.904 1.135 1.032.701.151 1.386.058 2.07-.082 1.52-.31 2.81-1.047 3.908-2.13 1.204-1.187 2.259-2.488 3.124-3.952 1.908-3.231 3.633-6.558 5.294-9.92.336-.68.68-1.359.783-2.138.08-.604.82-1.028 1.452-.916.595.105 1.05.731.955 1.348-.032.218-.109.436-.2.639-.578 1.29-1.139 2.588-1.759 3.859-.628 1.29-1.32 2.553-1.984 3.828-.061.12-.13.236-.181.358-.13.306-.37.65-.063.93.29.264.649.072.94-.084 2.04-1.09 3.884-2.433 5.364-4.231.3-.366.625-.631 1.13-.618.896.024 1.445.81 1.096 1.638-.118.283-.322.54-.53.77-1.654 1.838-3.587 3.323-5.758 4.5-.178.098-.36.189-.532.293-.54.325-.77.822-.686 1.429.117.864.275 1.725.433 2.583.045.24.124.483.24.696.299.557.783.697 1.286.31.513-.394 1.027-.82 1.423-1.323.873-1.112 1.672-2.282 2.5-3.428 1.462-2.02 2.892-4.066 4.85-5.66 1.408-1.143 2.929-2.077 4.717-2.506.775-.185 1.556-.222 2.343-.105.52.078 1 .25 1.384.633.48.48.54 1.107.156 1.65-.373.528-1.077.768-1.603.417-.795-.53-1.55-.319-2.305-.01-1.73.705-3.21 1.79-4.515 3.119-1.128 1.15-2.07 2.428-2.68 3.926-.179.434-.339.886-.425 1.346-.07.365-.084.769-.006 1.13.132.609.525.777 1.055.454.457-.278.923-.586 1.281-.977 1.185-1.287 2.33-2.612 3.474-3.937.396-.46.73-.971 1.12-1.434.322-.38.738-.583 1.258-.423.496.153.846.483.877.997.018.312-.092.668-.248.947-.534.95-.943 1.94-1.11 3.016-.054.351-.073.718-.035 1.072.044.423.331.601.72.432.321-.14.645-.338.889-.588.512-.532 1.02-1.081 1.447-1.682.83-1.174 1.601-2.386 2.4-3.582.11-.169.209-.35.341-.5.418-.476 1.074-.572 1.583-.248.508.324.722.98.407 1.541-1.268 2.256-2.591 4.48-4.54 6.237-.445.4-.959.75-1.495 1.018-1.11.56-2.218.456-3.264-.21-.302-.193-.584-.419-.865-.642-.44-.353-.878-.39-1.359-.074-.598.398-1.197.797-1.822 1.148-.59.332-1.217.599-1.918.542-1.02-.082-1.765-.608-2.273-1.481-.122-.211-.226-.432-.368-.705-.15.14-.279.25-.395.37-.423.434-.798.926-1.268 1.299-1.09.859-2.32 1.205-3.65.61-1.361-.61-2-1.733-2.11-3.194-.036-.468-.101-.936-.187-1.398-.036-.19-.141-.38-.254-.545-.304-.447-.61-.52-1.002-.15-.353.334-.667.73-.915 1.148-.72 1.218-1.398 2.46-2.093 3.693-.088.157-.173.315-.272.465-.607.934-1.627.951-2.247.037-.05-.073-.094-.149-.155-.25-.406.16-.796.324-1.192.47-1.21.443-2.45.737-3.746.739-1.608.001-2.898-.549-3.618-2.086-.027-.06-.071-.114-.129-.2-.226.268-.4.496-.594.706-1.09 1.193-2.416 1.853-4.059 1.75-1.399-.089-2.464-1.152-2.602-2.552-.09-.933.08-1.837.342-2.723.197-.667.446-1.317.674-1.974.063-.181.129-.36.224-.635-.739.147-1.331.373-1.743.916-.242.321-.45.672-.637 1.028-1.224 2.333-2.943 4.233-5.077 5.757-.435.31-.927.558-1.425.751-1.865.723-3.67-.124-4.343-2.01-.073-.205-.135-.413-.228-.702-.19.219-.332.385-.476.543-.543.6-1.048 1.24-1.637 1.79-1.17 1.093-2.76 1.31-4.05.586-1.148-.645-1.71-1.672-1.833-2.964-.044-.468-.067-.942-.164-1.4-.089-.419-.252-.875-.712-.989-.455-.112-.73.283-.984.588-.227.273-.41.587-.59.898-.723 1.267-1.43 2.545-2.155 3.812-.528.92-.99 1.058-2.006.677-.168-.062-.383-.016-.576.004-.465.052-.93.174-1.396.167-.956-.016-1.727-.433-2.274-1.233-.099-.145-.192-.292-.323-.491-.22.212-.398.414-.605.574-.588.447-1.146.952-1.79 1.297-1.12.596-2.256.481-3.32-.21-.283-.182-.543-.4-.813-.6-.563-.42-.815-.44-1.408-.076-.593.363-1.165.765-1.77 1.107-.609.345-1.252.624-1.98.558-1.08-.098-1.823-.689-2.323-1.622-.114-.21-.21-.432-.323-.661-.628.556-1.207 1.085-1.807 1.589-.596.502-1.295.798-2.062.935-1.43.255-2.42-.413-2.713-1.833-.166-.81-.061-1.614.073-2.41.252-1.49.737-2.912 1.367-4.286 1.1-2.392 2.47-4.636 3.761-6.924.838-1.485 1.587-3.019 2.385-4.525.146-.275.308-.554.52-.777.38-.4.916-.47 1.356-.235.436.234.725.74.637 1.236-.06.326-.174.654-.325.95-.49.96-1.003 1.907-1.517 2.855-1.517 2.805-3.074 5.588-4.537 8.42-.603 1.17-1.02 2.44-1.481 3.68-.112.3-.12.667-.083.991.052.449.387.58.79.328.282-.178.541-.401.784-.632 1.493-1.414 2.667-3.086 3.86-4.748 1.306-1.823 2.651-3.624 4.421-5.046 1.432-1.153 2.971-2.106 4.789-2.512.908-.203 1.83-.26 2.73.038.329.109.657.299.917.53.5.447.531 1.108.14 1.643-.38.522-1.08.745-1.61.393-.745-.494-1.46-.321-2.18-.044-1.334.514-2.523 1.279-3.602 2.21-1.583 1.367-2.913 2.936-3.704 4.896-.226.557-.347 1.158-.48 1.745-.047.21-.018.454.032.668.153.638.54.827 1.093.49.457-.28.919-.591 1.277-.982 1.169-1.272 2.302-2.577 3.43-3.885.41-.476.754-1.008 1.163-1.487.325-.38.745-.575 1.263-.403.494.162.839.497.863 1.01.013.312-.105.665-.262.944-.534.95-.933 1.943-1.106 3.018-.05.309-.07.629-.046.94.042.565.364.75.878.49.296-.15.578-.354.812-.588.396-.398.783-.812 1.114-1.262 1-1.354 1.935-2.743 2.698-4.26.868-1.722 1.898-3.363 2.85-5.043.17-.3.317-.616.513-1.005-.693-.027-1.099-.276-1.187-.888-.088-.62.148-1.12.76-1.445.353-.187.744-.317 1.133-.416.677-.173 1.168-.564 1.474-1.18.278-.562.538-1.134.783-1.71.265-.627.736-.948 1.352-.881.791.083 1.27.79 1.04 1.55-.078.257-.196.502-.274.76-.044.141-.044.296-.075.523.267.013.481.021.695.033.748.038 1.206.708.97 1.425-.132.402-.385.71-.778.882-.307.135-.618.268-.938.373-1.267.423-2.235 1.17-2.88 2.377-.85 1.583-1.833 3.094-2.654 4.69-.65 1.268-1.373 2.526-1.62 3.965-.009.043-.026.086-.034.13-.089.483-.117.963.356 1.272.437.284.884.138 1.266-.116.292-.196.577-.446.772-.733 1.068-1.556 2.213-3.071 3.131-4.712 1.81-3.23 3.501-6.529 5.215-9.813.37-.71.72-1.436.836-2.261.085-.602.819-.978 1.483-.858.569.103.997.698.92 1.304-.029.196-.09.394-.173.578-.596 1.33-1.172 2.671-1.812 3.981-.657 1.352-1.385 2.671-2.07 4.01-.169.33-.473.72-.152 1.051.357.37.768.032 1.102-.149 1.99-1.082 3.795-2.403 5.236-4.176.355-.436.764-.682 1.34-.565.766.152 1.174.85.88 1.576-.114.283-.313.546-.518.776-1.682 1.876-3.653 3.384-5.869 4.578-.236.126-.482.252-.685.425-.389.33-.52.781-.445 1.277.128.841.269 1.681.423 2.518.045.242.117.485.23.701.302.587.795.724 1.326.327.447-.332.88-.705 1.245-1.124.545-.625 1.059-1.284 1.527-1.969 1.042-1.516 2.05-3.053 3.063-4.59 1.2-1.822 2.621-3.42 4.496-4.578.246-.153.471-.343.704-.52 1.44-1.09 3.66-.921 4.578 1.109.285.63.468 1.307.68 1.969.288.902.364.945 1.224.58 1.942-.821 2.364-1.228 3.263-3.146.061-.132.082-.285.132-.476M9.246 34.605c-1.298.02-2.552-.207-3.747-.707-2.61-1.09-4.349-2.966-5.044-5.74-.817-3.257-.278-6.249 1.89-8.858 1.681-2.018 3.882-3.006 6.507-2.982.62.006 1.258.116 1.853.297 2.502.754 3.915 3.123 3.452 5.725-.06.33-.141.659-.245.978-.116.356-.355.616-.71.764-.685.283-1.298.015-1.453-.71-.092-.431-.037-.892-.072-1.338-.04-.488-.048-.991-.174-1.46-.237-.87-.84-1.415-1.728-1.616-1.592-.363-3.08-.145-4.407.855-2.854 2.148-3.608 6.432-1.69 9.445 1.145 1.8 2.833 2.674 4.89 2.792 3.702.212 6.628-1.287 8.8-4.265.674-.924 1.283-1.896 1.596-3.021.713-2.576.173-4.85-1.662-6.786-.817-.862-1.725-1.639-2.565-2.484-.455-.459-.897-.948-1.266-1.479-1.337-1.915-1.463-3.964-.509-6.07 1.475-3.249 5.541-4.873 8.747-3.527 1.018.429 1.86 1.085 2.493 1.99 1.684 2.405.366 5.907-2.471 6.548-.843.191-1.699.148-2.535-.082-.21-.058-.42-.168-.594-.302-.411-.323-.545-.775-.42-1.268.123-.474.468-.778.96-.823.33-.033.668.025 1.002.051.29.021.583.102.867.071.254-.027.536-.12.737-.272.85-.649.905-1.961.168-2.739-1.447-1.524-4.639-1.444-5.955.326-1.278 1.717-1.34 3.473.033 5.102.677.802 1.463 1.523 2.272 2.195 1.296 1.073 2.223 2.399 2.923 3.902.355.76.493 1.574.563 2.411.443 5.336-3.41 10.231-7.927 12.119-1.467.613-2.98.983-4.58.958" transform="translate(-150 -18) translate(150 18) translate(0 .17)"/>
                </g>
                <g>
                    <path fill="#020303" d="M3.223 3.109c.379 0 .62-.213.62-.541v-.01c0-.346-.233-.536-.625-.536h-.77V3.11h.775zM1.917 1.79c0-.162.117-.287.267-.287h1.077c.38 0 .676.12.87.324.16.176.25.416.25.698v.01c0 .517-.28.831-.685.966l.577.78c.052.07.087.13.087.218 0 .157-.125.264-.254.264-.121 0-.199-.06-.259-.148l-.732-1.003h-.668v.869c0 .157-.116.282-.263.282-.15 0-.267-.125-.267-.282V1.79z" transform="translate(-150 -18) translate(150 18) translate(121.535 3.752)"/>
                    <path fill="#000" d="M3.082.377C1.56.377.322 1.615.322 3.137c0 1.522 1.238 2.76 2.76 2.76 1.522 0 2.76-1.238 2.76-2.76 0-1.522-1.238-2.76-2.76-2.76m0 5.816c-1.685 0-3.056-1.37-3.056-3.056C.026 1.452 1.396.08 3.082.08c1.685 0 3.056 1.37 3.056 3.056 0 1.685-1.371 3.056-3.056 3.056" transform="translate(-150 -18) translate(150 18) translate(121.535 3.752)"/>
                </g>
            </g>
        </g>
    </g>
</svg>
